<?xml version="1.0" encoding="utf-8" standalone="no"?>
<!DOCTYPE svg PUBLIC "-//W3C//DTD SVG 1.1//EN"
  "http://www.w3.org/Graphics/SVG/1.1/DTD/svg11.dtd">
<svg xmlns:xlink="http://www.w3.org/1999/xlink" width="460.8pt" height="345.6pt" viewBox="0 0 460.8 345.6" xmlns="http://www.w3.org/2000/svg" version="1.1">
 <metadata>
  <rdf:RDF xmlns:dc="http://purl.org/dc/elements/1.1/" xmlns:cc="http://creativecommons.org/ns#" xmlns:rdf="http://www.w3.org/1999/02/22-rdf-syntax-ns#">
   <cc:Work>
    <dc:type rdf:resource="http://purl.org/dc/dcmitype/StillImage"/>
    <dc:date>2023-09-19T12:59:01.067157</dc:date>
    <dc:format>image/svg+xml</dc:format>
    <dc:creator>
     <cc:Agent>
      <dc:title>Matplotlib v3.5.1, https://matplotlib.org/</dc:title>
     </cc:Agent>
    </dc:creator>
   </cc:Work>
  </rdf:RDF>
 </metadata>
 <defs>
  <style type="text/css">*{stroke-linejoin: round; stroke-linecap: butt}</style>
 </defs>
 <g id="figure_1">
  <g id="patch_1">
   <path d="M 0 345.6 
L 460.8 345.6 
L 460.8 0 
L 0 0 
z
" style="fill: #ffffff"/>
  </g>
  <g id="axes_1">
   <g id="patch_2">
    <path d="M 57.6 307.584 
L 414.72 307.584 
L 414.72 41.472 
L 57.6 41.472 
z
" style="fill: #ffffff"/>
   </g>
   <g id="matplotlib.axis_1">
    <g id="xtick_1">
     <g id="line2d_1">
      <defs>
       <path id="m03788e8708" d="M 0 0 
L 0 3.5 
" style="stroke: #000000; stroke-width: 0.8"/>
      </defs>
      <g>
       <use xlink:href="#m03788e8708" x="73.832727" y="307.584" style="stroke: #000000; stroke-width: 0.8"/>
      </g>
     </g>
     <g id="text_1">
      <!-- 0 -->
      <g transform="translate(70.651477 322.182437)scale(0.1 -0.1)">
       <defs>
        <path id="DejaVuSans-30" d="M 2034 4250 
Q 1547 4250 1301 3770 
Q 1056 3291 1056 2328 
Q 1056 1369 1301 889 
Q 1547 409 2034 409 
Q 2525 409 2770 889 
Q 3016 1369 3016 2328 
Q 3016 3291 2770 3770 
Q 2525 4250 2034 4250 
z
M 2034 4750 
Q 2819 4750 3233 4129 
Q 3647 3509 3647 2328 
Q 3647 1150 3233 529 
Q 2819 -91 2034 -91 
Q 1250 -91 836 529 
Q 422 1150 422 2328 
Q 422 3509 836 4129 
Q 1250 4750 2034 4750 
z
" transform="scale(0.015625)"/>
       </defs>
       <use xlink:href="#DejaVuSans-30"/>
      </g>
     </g>
    </g>
    <g id="xtick_2">
     <g id="line2d_2">
      <g>
       <use xlink:href="#m03788e8708" x="139.419504" y="307.584" style="stroke: #000000; stroke-width: 0.8"/>
      </g>
     </g>
     <g id="text_2">
      <!-- 20 -->
      <g transform="translate(133.057004 322.182437)scale(0.1 -0.1)">
       <defs>
        <path id="DejaVuSans-32" d="M 1228 531 
L 3431 531 
L 3431 0 
L 469 0 
L 469 531 
Q 828 903 1448 1529 
Q 2069 2156 2228 2338 
Q 2531 2678 2651 2914 
Q 2772 3150 2772 3378 
Q 2772 3750 2511 3984 
Q 2250 4219 1831 4219 
Q 1534 4219 1204 4116 
Q 875 4013 500 3803 
L 500 4441 
Q 881 4594 1212 4672 
Q 1544 4750 1819 4750 
Q 2544 4750 2975 4387 
Q 3406 4025 3406 3419 
Q 3406 3131 3298 2873 
Q 3191 2616 2906 2266 
Q 2828 2175 2409 1742 
Q 1991 1309 1228 531 
z
" transform="scale(0.015625)"/>
       </defs>
       <use xlink:href="#DejaVuSans-32"/>
       <use xlink:href="#DejaVuSans-30" x="63.623047"/>
      </g>
     </g>
    </g>
    <g id="xtick_3">
     <g id="line2d_3">
      <g>
       <use xlink:href="#m03788e8708" x="205.006281" y="307.584" style="stroke: #000000; stroke-width: 0.8"/>
      </g>
     </g>
     <g id="text_3">
      <!-- 40 -->
      <g transform="translate(198.643781 322.182437)scale(0.1 -0.1)">
       <defs>
        <path id="DejaVuSans-34" d="M 2419 4116 
L 825 1625 
L 2419 1625 
L 2419 4116 
z
M 2253 4666 
L 3047 4666 
L 3047 1625 
L 3713 1625 
L 3713 1100 
L 3047 1100 
L 3047 0 
L 2419 0 
L 2419 1100 
L 313 1100 
L 313 1709 
L 2253 4666 
z
" transform="scale(0.015625)"/>
       </defs>
       <use xlink:href="#DejaVuSans-34"/>
       <use xlink:href="#DejaVuSans-30" x="63.623047"/>
      </g>
     </g>
    </g>
    <g id="xtick_4">
     <g id="line2d_4">
      <g>
       <use xlink:href="#m03788e8708" x="270.593058" y="307.584" style="stroke: #000000; stroke-width: 0.8"/>
      </g>
     </g>
     <g id="text_4">
      <!-- 60 -->
      <g transform="translate(264.230558 322.182437)scale(0.1 -0.1)">
       <defs>
        <path id="DejaVuSans-36" d="M 2113 2584 
Q 1688 2584 1439 2293 
Q 1191 2003 1191 1497 
Q 1191 994 1439 701 
Q 1688 409 2113 409 
Q 2538 409 2786 701 
Q 3034 994 3034 1497 
Q 3034 2003 2786 2293 
Q 2538 2584 2113 2584 
z
M 3366 4563 
L 3366 3988 
Q 3128 4100 2886 4159 
Q 2644 4219 2406 4219 
Q 1781 4219 1451 3797 
Q 1122 3375 1075 2522 
Q 1259 2794 1537 2939 
Q 1816 3084 2150 3084 
Q 2853 3084 3261 2657 
Q 3669 2231 3669 1497 
Q 3669 778 3244 343 
Q 2819 -91 2113 -91 
Q 1303 -91 875 529 
Q 447 1150 447 2328 
Q 447 3434 972 4092 
Q 1497 4750 2381 4750 
Q 2619 4750 2861 4703 
Q 3103 4656 3366 4563 
z
" transform="scale(0.015625)"/>
       </defs>
       <use xlink:href="#DejaVuSans-36"/>
       <use xlink:href="#DejaVuSans-30" x="63.623047"/>
      </g>
     </g>
    </g>
    <g id="xtick_5">
     <g id="line2d_5">
      <g>
       <use xlink:href="#m03788e8708" x="336.179835" y="307.584" style="stroke: #000000; stroke-width: 0.8"/>
      </g>
     </g>
     <g id="text_5">
      <!-- 80 -->
      <g transform="translate(329.817335 322.182437)scale(0.1 -0.1)">
       <defs>
        <path id="DejaVuSans-38" d="M 2034 2216 
Q 1584 2216 1326 1975 
Q 1069 1734 1069 1313 
Q 1069 891 1326 650 
Q 1584 409 2034 409 
Q 2484 409 2743 651 
Q 3003 894 3003 1313 
Q 3003 1734 2745 1975 
Q 2488 2216 2034 2216 
z
M 1403 2484 
Q 997 2584 770 2862 
Q 544 3141 544 3541 
Q 544 4100 942 4425 
Q 1341 4750 2034 4750 
Q 2731 4750 3128 4425 
Q 3525 4100 3525 3541 
Q 3525 3141 3298 2862 
Q 3072 2584 2669 2484 
Q 3125 2378 3379 2068 
Q 3634 1759 3634 1313 
Q 3634 634 3220 271 
Q 2806 -91 2034 -91 
Q 1263 -91 848 271 
Q 434 634 434 1313 
Q 434 1759 690 2068 
Q 947 2378 1403 2484 
z
M 1172 3481 
Q 1172 3119 1398 2916 
Q 1625 2713 2034 2713 
Q 2441 2713 2670 2916 
Q 2900 3119 2900 3481 
Q 2900 3844 2670 4047 
Q 2441 4250 2034 4250 
Q 1625 4250 1398 4047 
Q 1172 3844 1172 3481 
z
" transform="scale(0.015625)"/>
       </defs>
       <use xlink:href="#DejaVuSans-38"/>
       <use xlink:href="#DejaVuSans-30" x="63.623047"/>
      </g>
     </g>
    </g>
    <g id="xtick_6">
     <g id="line2d_6">
      <g>
       <use xlink:href="#m03788e8708" x="401.766612" y="307.584" style="stroke: #000000; stroke-width: 0.8"/>
      </g>
     </g>
     <g id="text_6">
      <!-- 100 -->
      <g transform="translate(392.222862 322.182437)scale(0.1 -0.1)">
       <defs>
        <path id="DejaVuSans-31" d="M 794 531 
L 1825 531 
L 1825 4091 
L 703 3866 
L 703 4441 
L 1819 4666 
L 2450 4666 
L 2450 531 
L 3481 531 
L 3481 0 
L 794 0 
L 794 531 
z
" transform="scale(0.015625)"/>
       </defs>
       <use xlink:href="#DejaVuSans-31"/>
       <use xlink:href="#DejaVuSans-30" x="63.623047"/>
       <use xlink:href="#DejaVuSans-30" x="127.246094"/>
      </g>
     </g>
    </g>
    <g id="text_7">
     <!-- points (-) -->
     <g transform="translate(213.509219 335.860562)scale(0.1 -0.1)">
      <defs>
       <path id="DejaVuSans-70" d="M 1159 525 
L 1159 -1331 
L 581 -1331 
L 581 3500 
L 1159 3500 
L 1159 2969 
Q 1341 3281 1617 3432 
Q 1894 3584 2278 3584 
Q 2916 3584 3314 3078 
Q 3713 2572 3713 1747 
Q 3713 922 3314 415 
Q 2916 -91 2278 -91 
Q 1894 -91 1617 61 
Q 1341 213 1159 525 
z
M 3116 1747 
Q 3116 2381 2855 2742 
Q 2594 3103 2138 3103 
Q 1681 3103 1420 2742 
Q 1159 2381 1159 1747 
Q 1159 1113 1420 752 
Q 1681 391 2138 391 
Q 2594 391 2855 752 
Q 3116 1113 3116 1747 
z
" transform="scale(0.015625)"/>
       <path id="DejaVuSans-6f" d="M 1959 3097 
Q 1497 3097 1228 2736 
Q 959 2375 959 1747 
Q 959 1119 1226 758 
Q 1494 397 1959 397 
Q 2419 397 2687 759 
Q 2956 1122 2956 1747 
Q 2956 2369 2687 2733 
Q 2419 3097 1959 3097 
z
M 1959 3584 
Q 2709 3584 3137 3096 
Q 3566 2609 3566 1747 
Q 3566 888 3137 398 
Q 2709 -91 1959 -91 
Q 1206 -91 779 398 
Q 353 888 353 1747 
Q 353 2609 779 3096 
Q 1206 3584 1959 3584 
z
" transform="scale(0.015625)"/>
       <path id="DejaVuSans-69" d="M 603 3500 
L 1178 3500 
L 1178 0 
L 603 0 
L 603 3500 
z
M 603 4863 
L 1178 4863 
L 1178 4134 
L 603 4134 
L 603 4863 
z
" transform="scale(0.015625)"/>
       <path id="DejaVuSans-6e" d="M 3513 2113 
L 3513 0 
L 2938 0 
L 2938 2094 
Q 2938 2591 2744 2837 
Q 2550 3084 2163 3084 
Q 1697 3084 1428 2787 
Q 1159 2491 1159 1978 
L 1159 0 
L 581 0 
L 581 3500 
L 1159 3500 
L 1159 2956 
Q 1366 3272 1645 3428 
Q 1925 3584 2291 3584 
Q 2894 3584 3203 3211 
Q 3513 2838 3513 2113 
z
" transform="scale(0.015625)"/>
       <path id="DejaVuSans-74" d="M 1172 4494 
L 1172 3500 
L 2356 3500 
L 2356 3053 
L 1172 3053 
L 1172 1153 
Q 1172 725 1289 603 
Q 1406 481 1766 481 
L 2356 481 
L 2356 0 
L 1766 0 
Q 1100 0 847 248 
Q 594 497 594 1153 
L 594 3053 
L 172 3053 
L 172 3500 
L 594 3500 
L 594 4494 
L 1172 4494 
z
" transform="scale(0.015625)"/>
       <path id="DejaVuSans-73" d="M 2834 3397 
L 2834 2853 
Q 2591 2978 2328 3040 
Q 2066 3103 1784 3103 
Q 1356 3103 1142 2972 
Q 928 2841 928 2578 
Q 928 2378 1081 2264 
Q 1234 2150 1697 2047 
L 1894 2003 
Q 2506 1872 2764 1633 
Q 3022 1394 3022 966 
Q 3022 478 2636 193 
Q 2250 -91 1575 -91 
Q 1294 -91 989 -36 
Q 684 19 347 128 
L 347 722 
Q 666 556 975 473 
Q 1284 391 1588 391 
Q 1994 391 2212 530 
Q 2431 669 2431 922 
Q 2431 1156 2273 1281 
Q 2116 1406 1581 1522 
L 1381 1569 
Q 847 1681 609 1914 
Q 372 2147 372 2553 
Q 372 3047 722 3315 
Q 1072 3584 1716 3584 
Q 2034 3584 2315 3537 
Q 2597 3491 2834 3397 
z
" transform="scale(0.015625)"/>
       <path id="DejaVuSans-20" transform="scale(0.015625)"/>
       <path id="DejaVuSans-28" d="M 1984 4856 
Q 1566 4138 1362 3434 
Q 1159 2731 1159 2009 
Q 1159 1288 1364 580 
Q 1569 -128 1984 -844 
L 1484 -844 
Q 1016 -109 783 600 
Q 550 1309 550 2009 
Q 550 2706 781 3412 
Q 1013 4119 1484 4856 
L 1984 4856 
z
" transform="scale(0.015625)"/>
       <path id="DejaVuSans-2d" d="M 313 2009 
L 1997 2009 
L 1997 1497 
L 313 1497 
L 313 2009 
z
" transform="scale(0.015625)"/>
       <path id="DejaVuSans-29" d="M 513 4856 
L 1013 4856 
Q 1481 4119 1714 3412 
Q 1947 2706 1947 2009 
Q 1947 1309 1714 600 
Q 1481 -109 1013 -844 
L 513 -844 
Q 928 -128 1133 580 
Q 1338 1288 1338 2009 
Q 1338 2731 1133 3434 
Q 928 4138 513 4856 
z
" transform="scale(0.015625)"/>
      </defs>
      <use xlink:href="#DejaVuSans-70"/>
      <use xlink:href="#DejaVuSans-6f" x="63.476562"/>
      <use xlink:href="#DejaVuSans-69" x="124.658203"/>
      <use xlink:href="#DejaVuSans-6e" x="152.441406"/>
      <use xlink:href="#DejaVuSans-74" x="215.820312"/>
      <use xlink:href="#DejaVuSans-73" x="255.029297"/>
      <use xlink:href="#DejaVuSans-20" x="307.128906"/>
      <use xlink:href="#DejaVuSans-28" x="338.916016"/>
      <use xlink:href="#DejaVuSans-2d" x="377.929688"/>
      <use xlink:href="#DejaVuSans-29" x="414.013672"/>
     </g>
    </g>
   </g>
   <g id="matplotlib.axis_2">
    <g id="ytick_1">
     <g id="line2d_7">
      <defs>
       <path id="m8fd27b8ef7" d="M 0 0 
L -3.5 0 
" style="stroke: #000000; stroke-width: 0.8"/>
      </defs>
      <g>
       <use xlink:href="#m8fd27b8ef7" x="57.6" y="295.490422" style="stroke: #000000; stroke-width: 0.8"/>
      </g>
     </g>
     <g id="text_8">
      <!-- 0 -->
      <g transform="translate(44.2375 299.289641)scale(0.1 -0.1)">
       <use xlink:href="#DejaVuSans-30"/>
      </g>
     </g>
    </g>
    <g id="ytick_2">
     <g id="line2d_8">
      <g>
       <use xlink:href="#m8fd27b8ef7" x="57.6" y="247.044896" style="stroke: #000000; stroke-width: 0.8"/>
      </g>
     </g>
     <g id="text_9">
      <!-- 20000 -->
      <g transform="translate(18.7875 250.844115)scale(0.1 -0.1)">
       <use xlink:href="#DejaVuSans-32"/>
       <use xlink:href="#DejaVuSans-30" x="63.623047"/>
       <use xlink:href="#DejaVuSans-30" x="127.246094"/>
       <use xlink:href="#DejaVuSans-30" x="190.869141"/>
       <use xlink:href="#DejaVuSans-30" x="254.492188"/>
      </g>
     </g>
    </g>
    <g id="ytick_3">
     <g id="line2d_9">
      <g>
       <use xlink:href="#m8fd27b8ef7" x="57.6" y="198.599371" style="stroke: #000000; stroke-width: 0.8"/>
      </g>
     </g>
     <g id="text_10">
      <!-- 40000 -->
      <g transform="translate(18.7875 202.398589)scale(0.1 -0.1)">
       <use xlink:href="#DejaVuSans-34"/>
       <use xlink:href="#DejaVuSans-30" x="63.623047"/>
       <use xlink:href="#DejaVuSans-30" x="127.246094"/>
       <use xlink:href="#DejaVuSans-30" x="190.869141"/>
       <use xlink:href="#DejaVuSans-30" x="254.492188"/>
      </g>
     </g>
    </g>
    <g id="ytick_4">
     <g id="line2d_10">
      <g>
       <use xlink:href="#m8fd27b8ef7" x="57.6" y="150.153845" style="stroke: #000000; stroke-width: 0.8"/>
      </g>
     </g>
     <g id="text_11">
      <!-- 60000 -->
      <g transform="translate(18.7875 153.953064)scale(0.1 -0.1)">
       <use xlink:href="#DejaVuSans-36"/>
       <use xlink:href="#DejaVuSans-30" x="63.623047"/>
       <use xlink:href="#DejaVuSans-30" x="127.246094"/>
       <use xlink:href="#DejaVuSans-30" x="190.869141"/>
       <use xlink:href="#DejaVuSans-30" x="254.492188"/>
      </g>
     </g>
    </g>
    <g id="ytick_5">
     <g id="line2d_11">
      <g>
       <use xlink:href="#m8fd27b8ef7" x="57.6" y="101.708319" style="stroke: #000000; stroke-width: 0.8"/>
      </g>
     </g>
     <g id="text_12">
      <!-- 80000 -->
      <g transform="translate(18.7875 105.507538)scale(0.1 -0.1)">
       <use xlink:href="#DejaVuSans-38"/>
       <use xlink:href="#DejaVuSans-30" x="63.623047"/>
       <use xlink:href="#DejaVuSans-30" x="127.246094"/>
       <use xlink:href="#DejaVuSans-30" x="190.869141"/>
       <use xlink:href="#DejaVuSans-30" x="254.492188"/>
      </g>
     </g>
    </g>
    <g id="ytick_6">
     <g id="line2d_12">
      <g>
       <use xlink:href="#m8fd27b8ef7" x="57.6" y="53.262793" style="stroke: #000000; stroke-width: 0.8"/>
      </g>
     </g>
     <g id="text_13">
      <!-- 100000 -->
      <g transform="translate(12.425 57.062012)scale(0.1 -0.1)">
       <use xlink:href="#DejaVuSans-31"/>
       <use xlink:href="#DejaVuSans-30" x="63.623047"/>
       <use xlink:href="#DejaVuSans-30" x="127.246094"/>
       <use xlink:href="#DejaVuSans-30" x="190.869141"/>
       <use xlink:href="#DejaVuSans-30" x="254.492188"/>
       <use xlink:href="#DejaVuSans-30" x="318.115234"/>
      </g>
     </g>
    </g>
   </g>
   <g id="line2d_13">
    <path d="M 73.832727 295.488 
L 77.112066 295.485578 
L 80.391405 295.483155 
L 83.670744 295.480733 
L 86.950083 295.478311 
L 90.229421 295.475889 
L 93.50876 295.473466 
L 96.788099 295.471044 
L 100.067438 295.468622 
L 103.346777 295.4662 
L 106.626116 295.463777 
L 109.905455 295.461355 
L 113.184793 295.458933 
L 116.464132 295.45651 
L 119.743471 295.454088 
L 123.02281 295.451666 
L 126.302149 295.449244 
L 129.581488 295.446821 
L 132.860826 295.444399 
L 136.140165 295.441977 
L 139.419504 295.439554 
L 142.698843 295.437132 
L 145.978182 295.43471 
L 149.257521 295.432288 
L 152.53686 295.429865 
L 155.816198 295.427443 
L 159.095537 295.425021 
L 162.374876 295.422599 
L 165.654215 295.420176 
L 168.933554 295.417754 
L 172.212893 295.415332 
L 175.492231 295.412909 
L 178.77157 295.410487 
L 182.050909 295.408065 
L 185.330248 295.405643 
L 188.609587 295.40322 
L 191.888926 295.400798 
L 195.168264 295.398376 
L 198.447603 295.395954 
L 201.726942 295.393531 
L 205.006281 295.391109 
L 208.28562 295.388687 
L 211.564959 295.386264 
L 214.844298 295.383842 
L 218.123636 295.38142 
L 221.402975 295.378998 
L 224.682314 295.376575 
L 227.961653 295.374153 
L 231.240992 295.371731 
L 234.520331 295.369308 
L 237.799669 295.366886 
L 241.079008 295.364464 
L 244.358347 295.362042 
L 247.637686 295.359619 
L 250.917025 295.357197 
L 254.196364 295.354775 
L 257.475702 295.352353 
L 260.755041 295.34993 
L 264.03438 295.347508 
L 267.313719 295.345086 
L 270.593058 295.342663 
L 273.872397 295.340241 
L 277.151736 295.337819 
L 280.431074 295.335397 
L 283.710413 295.332974 
L 286.989752 295.330552 
L 290.269091 295.32813 
L 293.54843 295.325707 
L 296.827769 295.323285 
L 300.107107 295.320863 
L 303.386446 295.318441 
L 306.665785 295.316018 
L 309.945124 295.313596 
L 313.224463 295.311174 
L 316.503802 295.308752 
L 319.78314 295.306329 
L 323.062479 295.303907 
L 326.341818 295.301485 
L 329.621157 295.299062 
L 332.900496 295.29664 
L 336.179835 295.294218 
L 339.459174 295.291796 
L 342.738512 295.289373 
L 346.017851 295.286951 
L 349.29719 295.284529 
L 352.576529 295.282107 
L 355.855868 295.279684 
L 359.135207 295.277262 
L 362.414545 295.27484 
L 365.693884 295.272417 
L 368.973223 295.269995 
L 372.252562 295.267573 
L 375.531901 295.265151 
L 378.81124 295.262728 
L 382.090579 295.260306 
L 385.369917 295.257884 
L 388.649256 295.255461 
L 391.928595 295.253039 
L 395.207934 295.250617 
L 398.487273 295.248195 
" clip-path="url(#pbb48314d3f)" style="fill: none; stroke: #1f77b4; stroke-width: 1.5; stroke-linecap: square"/>
   </g>
   <g id="line2d_14">
    <path d="M 73.832727 295.366886 
L 77.112066 295.364464 
L 80.391405 295.347508 
L 83.670744 295.335397 
L 86.950083 295.359619 
L 90.229421 295.347508 
L 93.50876 295.40322 
L 96.788099 295.342663 
L 100.067438 295.359619 
L 103.346777 295.410487 
L 106.626116 295.40322 
L 109.905455 295.40322 
L 113.184793 295.369308 
L 116.464132 295.376575 
L 119.743471 295.427443 
L 123.02281 295.347508 
L 126.302149 295.359619 
L 129.581488 295.395954 
L 132.860826 295.340241 
L 136.140165 295.43471 
L 139.419504 295.337819 
L 142.698843 295.417754 
L 145.978182 295.415332 
L 149.257521 295.388687 
L 152.53686 295.420176 
L 155.816198 295.412909 
L 159.095537 295.364464 
L 162.374876 295.408065 
L 165.654215 295.410487 
L 168.933554 295.405643 
L 172.212893 295.422599 
L 175.492231 295.369308 
L 178.77157 295.410487 
L 182.050909 295.345086 
L 185.330248 295.415332 
L 188.609587 295.417754 
L 191.888926 295.43471 
L 195.168264 295.374153 
L 198.447603 295.332974 
L 201.726942 295.400798 
L 205.006281 295.383842 
L 208.28562 295.378998 
L 211.564959 295.366886 
L 214.844298 295.386264 
L 218.123636 295.38142 
L 221.402975 295.388687 
L 224.682314 295.371731 
L 227.961653 295.366886 
L 231.240992 295.354775 
L 234.520331 295.364464 
L 237.799669 295.437132 
L 241.079008 295.369308 
L 244.358347 295.332974 
L 247.637686 295.383842 
L 250.917025 295.357197 
L 254.196364 295.376575 
L 257.475702 295.374153 
L 260.755041 295.425021 
L 264.03438 295.369308 
L 267.313719 295.408065 
L 270.593058 295.427443 
L 273.872397 295.410487 
L 277.151736 295.40322 
L 280.431074 295.38142 
L 283.710413 295.388687 
L 286.989752 295.410487 
L 290.269091 295.408065 
L 293.54843 295.441977 
L 296.827769 295.410487 
L 300.107107 295.429865 
L 303.386446 295.398376 
L 306.665785 295.364464 
L 309.945124 295.395954 
L 313.224463 295.43471 
L 316.503802 295.398376 
L 319.78314 295.429865 
L 323.062479 295.432288 
L 326.341818 295.366886 
L 329.621157 295.398376 
L 332.900496 295.354775 
L 336.179835 295.369308 
L 339.459174 295.412909 
L 342.738512 295.376575 
L 346.017851 295.376575 
L 349.29719 295.340241 
L 352.576529 295.366886 
L 355.855868 295.420176 
L 359.135207 295.359619 
L 362.414545 295.364464 
L 365.693884 295.376575 
L 368.973223 295.34993 
L 372.252562 295.359619 
L 375.531901 295.369308 
L 378.81124 295.405643 
L 382.090579 295.417754 
L 385.369917 295.345086 
L 388.649256 295.335397 
L 391.928595 295.357197 
L 395.207934 295.422599 
L 398.487273 295.345086 
" clip-path="url(#pbb48314d3f)" style="fill: none; stroke: #ff7f0e; stroke-width: 1.5; stroke-linecap: square"/>
   </g>
   <g id="line2d_15">
    <path d="M 73.832727 134.496251 
L 77.112066 199.633683 
L 80.391405 164.353228 
L 83.670744 130.57943 
L 86.950083 176.881241 
L 90.229421 53.568 
L 93.50876 78.359998 
L 96.788099 172.010044 
L 100.067438 61.716537 
L 103.346777 80.387443 
L 106.626116 193.677305 
L 109.905455 137.994018 
L 113.184793 94.998614 
L 116.464132 62.896186 
L 119.743471 165.506232 
L 123.02281 72.730628 
L 126.302149 120.226621 
L 129.581488 225.341301 
L 132.860826 99.220641 
L 136.140165 159.184091 
L 139.419504 115.084129 
L 142.698843 258.439284 
L 145.978182 91.382155 
L 149.257521 104.745853 
L 152.53686 206.791509 
L 155.816198 64.167881 
L 159.095537 279.263593 
L 162.374876 256.932628 
L 165.654215 189.663593 
L 168.933554 125.519295 
L 172.212893 62.351174 
L 175.492231 54.016121 
L 178.77157 278.362507 
L 182.050909 138.415494 
L 185.330248 138.282269 
L 188.609587 269.196613 
L 191.888926 104.808833 
L 195.168264 158.137667 
L 198.447603 283.950698 
L 201.726942 257.419506 
L 205.006281 182.958733 
L 208.28562 129.54754 
L 211.564959 142.560009 
L 214.844298 176.321696 
L 218.123636 92.259019 
L 221.402975 267.411396 
L 224.682314 107.868168 
L 227.961653 85.316775 
L 231.240992 192.902177 
L 234.520331 197.443945 
L 237.799669 231.7676 
L 241.079008 198.756819 
L 244.358347 137.434472 
L 247.637686 228.560506 
L 250.917025 154.337116 
L 254.196364 249.937094 
L 257.475702 99.237597 
L 260.755041 87.990968 
L 264.03438 200.016402 
L 267.313719 195.782263 
L 270.593058 83.056792 
L 273.872397 55.273283 
L 277.151736 100.485069 
L 280.431074 201.215429 
L 283.710413 282.807384 
L 286.989752 81.855343 
L 290.269091 282.538511 
L 293.54843 69.991033 
L 296.827769 141.89146 
L 300.107107 287.252261 
L 303.386446 121.440182 
L 306.665785 288.875186 
L 309.945124 183.271206 
L 313.224463 275.179636 
L 316.503802 76.056413 
L 319.78314 159.106578 
L 323.062479 231.176564 
L 326.341818 283.667292 
L 329.621157 283.284572 
L 332.900496 242.202766 
L 336.179835 243.886248 
L 339.459174 174.422631 
L 342.738512 62.33664 
L 346.017851 115.517716 
L 349.29719 183.058046 
L 352.576529 102.231531 
L 355.855868 166.668925 
L 359.135207 145.299603 
L 362.414545 187.219517 
L 365.693884 226.24481 
L 368.973223 186.28694 
L 372.252562 249.026318 
L 375.531901 216.114851 
L 378.81124 211.008692 
L 382.090579 150.289492 
L 385.369917 289.91192 
L 388.649256 143.814748 
L 391.928595 196.000268 
L 395.207934 87.608249 
L 398.487273 110.460003 
" clip-path="url(#pbb48314d3f)" style="fill: none; stroke: #2ca02c; stroke-width: 1.5; stroke-linecap: square"/>
   </g>
   <g id="line2d_16">
    <path d="M 73.832727 288.099331 
L 77.112066 285.717579 
L 80.391405 293.090673 
L 83.670744 293.290244 
L 86.950083 292.078888 
L 90.229421 293.405327 
L 93.50876 273.220135 
L 96.788099 279.370246 
L 100.067438 294.595028 
L 103.346777 276.843594 
L 106.626116 285.089216 
L 109.905455 281.961694 
L 113.184793 274.396732 
L 116.464132 290.817779 
L 119.743471 279.671868 
L 123.02281 276.270556 
L 126.302149 283.26282 
L 129.581488 287.945613 
L 132.860826 280.054685 
L 136.140165 288.408607 
L 139.419504 287.870377 
L 142.698843 275.983177 
L 145.978182 290.940128 
L 149.257521 283.600219 
L 152.53686 277.812747 
L 155.816198 283.679815 
L 159.095537 273.220547 
L 162.374876 272.839717 
L 165.654215 283.999119 
L 168.933554 274.286034 
L 172.212893 284.867748 
L 175.492231 282.312125 
L 178.77157 290.691336 
L 182.050909 277.28222 
L 185.330248 282.050132 
L 188.609587 280.195467 
L 191.888926 286.011982 
L 195.168264 286.30331 
L 198.447603 278.981907 
L 201.726942 285.420681 
L 205.006281 287.278009 
L 208.28562 294.556877 
L 211.564959 278.388473 
L 214.844298 290.552515 
L 218.123636 282.518261 
L 221.402975 285.247924 
L 224.682314 290.849535 
L 227.961653 273.497631 
L 231.240992 281.311846 
L 234.520331 289.420997 
L 237.799669 295.046807 
L 241.079008 275.111303 
L 244.358347 283.346534 
L 247.637686 288.392426 
L 250.917025 272.215351 
L 254.196364 281.874565 
L 257.475702 284.210269 
L 260.755041 293.59659 
L 264.03438 293.591479 
L 267.313719 279.215923 
L 270.593058 278.43033 
L 273.872397 288.092645 
L 277.151736 286.377092 
L 280.431074 277.979351 
L 283.710413 282.409161 
L 286.989752 286.325643 
L 290.269091 274.360519 
L 293.54843 294.882164 
L 296.827769 289.418866 
L 300.107107 293.658818 
L 303.386446 288.589163 
L 306.665785 289.704452 
L 309.945124 283.172663 
L 313.224463 285.824765 
L 316.503802 277.802694 
L 319.78314 295.420564 
L 323.062479 286.420378 
L 326.341818 294.275748 
L 329.621157 294.01608 
L 332.900496 289.411575 
L 336.179835 277.350867 
L 339.459174 272.923164 
L 342.738512 290.595777 
L 346.017851 274.363256 
L 349.29719 289.055863 
L 352.576529 278.203751 
L 355.855868 280.068855 
L 359.135207 273.640109 
L 362.414545 277.255623 
L 365.693884 284.478197 
L 368.973223 282.028549 
L 372.252562 280.646204 
L 375.531901 285.114166 
L 378.81124 288.552853 
L 382.090579 280.044753 
L 385.369917 290.809809 
L 388.649256 283.146527 
L 391.928595 283.438459 
L 395.207934 276.725508 
L 398.487273 290.380945 
" clip-path="url(#pbb48314d3f)" style="fill: none; stroke: #d62728; stroke-width: 1.5; stroke-linecap: square"/>
   </g>
   <g id="patch_3">
    <path d="M 57.6 307.584 
L 57.6 41.472 
" style="fill: none; stroke: #000000; stroke-width: 0.8; stroke-linejoin: miter; stroke-linecap: square"/>
   </g>
   <g id="patch_4">
    <path d="M 414.72 307.584 
L 414.72 41.472 
" style="fill: none; stroke: #000000; stroke-width: 0.8; stroke-linejoin: miter; stroke-linecap: square"/>
   </g>
   <g id="patch_5">
    <path d="M 57.6 307.584 
L 414.72 307.584 
" style="fill: none; stroke: #000000; stroke-width: 0.8; stroke-linejoin: miter; stroke-linecap: square"/>
   </g>
   <g id="patch_6">
    <path d="M 57.6 41.472 
L 414.72 41.472 
" style="fill: none; stroke: #000000; stroke-width: 0.8; stroke-linejoin: miter; stroke-linecap: square"/>
   </g>
   <g id="legend_1">
    <g id="patch_7">
     <path d="M 347.4575 108.1845 
L 407.72 108.1845 
Q 409.72 108.1845 409.72 106.1845 
L 409.72 48.472 
Q 409.72 46.472 407.72 46.472 
L 347.4575 46.472 
Q 345.4575 46.472 345.4575 48.472 
L 345.4575 106.1845 
Q 345.4575 108.1845 347.4575 108.1845 
z
" style="fill: #ffffff; opacity: 0.8; stroke: #cccccc; stroke-linejoin: miter"/>
    </g>
    <g id="line2d_17">
     <path d="M 349.4575 54.570438 
L 359.4575 54.570438 
L 369.4575 54.570438 
" style="fill: none; stroke: #1f77b4; stroke-width: 1.5; stroke-linecap: square"/>
    </g>
    <g id="text_14">
     <!-- seq -->
     <g transform="translate(377.4575 58.070438)scale(0.1 -0.1)">
      <defs>
       <path id="DejaVuSans-65" d="M 3597 1894 
L 3597 1613 
L 953 1613 
Q 991 1019 1311 708 
Q 1631 397 2203 397 
Q 2534 397 2845 478 
Q 3156 559 3463 722 
L 3463 178 
Q 3153 47 2828 -22 
Q 2503 -91 2169 -91 
Q 1331 -91 842 396 
Q 353 884 353 1716 
Q 353 2575 817 3079 
Q 1281 3584 2069 3584 
Q 2775 3584 3186 3129 
Q 3597 2675 3597 1894 
z
M 3022 2063 
Q 3016 2534 2758 2815 
Q 2500 3097 2075 3097 
Q 1594 3097 1305 2825 
Q 1016 2553 972 2059 
L 3022 2063 
z
" transform="scale(0.015625)"/>
       <path id="DejaVuSans-71" d="M 947 1747 
Q 947 1113 1208 752 
Q 1469 391 1925 391 
Q 2381 391 2643 752 
Q 2906 1113 2906 1747 
Q 2906 2381 2643 2742 
Q 2381 3103 1925 3103 
Q 1469 3103 1208 2742 
Q 947 2381 947 1747 
z
M 2906 525 
Q 2725 213 2448 61 
Q 2172 -91 1784 -91 
Q 1150 -91 751 415 
Q 353 922 353 1747 
Q 353 2572 751 3078 
Q 1150 3584 1784 3584 
Q 2172 3584 2448 3432 
Q 2725 3281 2906 2969 
L 2906 3500 
L 3481 3500 
L 3481 -1331 
L 2906 -1331 
L 2906 525 
z
" transform="scale(0.015625)"/>
      </defs>
      <use xlink:href="#DejaVuSans-73"/>
      <use xlink:href="#DejaVuSans-65" x="52.099609"/>
      <use xlink:href="#DejaVuSans-71" x="113.623047"/>
     </g>
    </g>
    <g id="line2d_18">
     <path d="M 349.4575 69.248563 
L 359.4575 69.248563 
L 369.4575 69.248563 
" style="fill: none; stroke: #ff7f0e; stroke-width: 1.5; stroke-linecap: square"/>
    </g>
    <g id="text_15">
     <!-- age -->
     <g transform="translate(377.4575 72.748563)scale(0.1 -0.1)">
      <defs>
       <path id="DejaVuSans-61" d="M 2194 1759 
Q 1497 1759 1228 1600 
Q 959 1441 959 1056 
Q 959 750 1161 570 
Q 1363 391 1709 391 
Q 2188 391 2477 730 
Q 2766 1069 2766 1631 
L 2766 1759 
L 2194 1759 
z
M 3341 1997 
L 3341 0 
L 2766 0 
L 2766 531 
Q 2569 213 2275 61 
Q 1981 -91 1556 -91 
Q 1019 -91 701 211 
Q 384 513 384 1019 
Q 384 1609 779 1909 
Q 1175 2209 1959 2209 
L 2766 2209 
L 2766 2266 
Q 2766 2663 2505 2880 
Q 2244 3097 1772 3097 
Q 1472 3097 1187 3025 
Q 903 2953 641 2809 
L 641 3341 
Q 956 3463 1253 3523 
Q 1550 3584 1831 3584 
Q 2591 3584 2966 3190 
Q 3341 2797 3341 1997 
z
" transform="scale(0.015625)"/>
       <path id="DejaVuSans-67" d="M 2906 1791 
Q 2906 2416 2648 2759 
Q 2391 3103 1925 3103 
Q 1463 3103 1205 2759 
Q 947 2416 947 1791 
Q 947 1169 1205 825 
Q 1463 481 1925 481 
Q 2391 481 2648 825 
Q 2906 1169 2906 1791 
z
M 3481 434 
Q 3481 -459 3084 -895 
Q 2688 -1331 1869 -1331 
Q 1566 -1331 1297 -1286 
Q 1028 -1241 775 -1147 
L 775 -588 
Q 1028 -725 1275 -790 
Q 1522 -856 1778 -856 
Q 2344 -856 2625 -561 
Q 2906 -266 2906 331 
L 2906 616 
Q 2728 306 2450 153 
Q 2172 0 1784 0 
Q 1141 0 747 490 
Q 353 981 353 1791 
Q 353 2603 747 3093 
Q 1141 3584 1784 3584 
Q 2172 3584 2450 3431 
Q 2728 3278 2906 2969 
L 2906 3500 
L 3481 3500 
L 3481 434 
z
" transform="scale(0.015625)"/>
      </defs>
      <use xlink:href="#DejaVuSans-61"/>
      <use xlink:href="#DejaVuSans-67" x="61.279297"/>
      <use xlink:href="#DejaVuSans-65" x="124.755859"/>
     </g>
    </g>
    <g id="line2d_19">
     <path d="M 349.4575 83.926688 
L 359.4575 83.926688 
L 369.4575 83.926688 
" style="fill: none; stroke: #2ca02c; stroke-width: 1.5; stroke-linecap: square"/>
    </g>
    <g id="text_16">
     <!-- zip -->
     <g transform="translate(377.4575 87.426688)scale(0.1 -0.1)">
      <defs>
       <path id="DejaVuSans-7a" d="M 353 3500 
L 3084 3500 
L 3084 2975 
L 922 459 
L 3084 459 
L 3084 0 
L 275 0 
L 275 525 
L 2438 3041 
L 353 3041 
L 353 3500 
z
" transform="scale(0.015625)"/>
      </defs>
      <use xlink:href="#DejaVuSans-7a"/>
      <use xlink:href="#DejaVuSans-69" x="52.490234"/>
      <use xlink:href="#DejaVuSans-70" x="80.273438"/>
     </g>
    </g>
    <g id="line2d_20">
     <path d="M 349.4575 98.604813 
L 359.4575 98.604813 
L 369.4575 98.604813 
" style="fill: none; stroke: #d62728; stroke-width: 1.5; stroke-linecap: square"/>
    </g>
    <g id="text_17">
     <!-- dollar -->
     <g transform="translate(377.4575 102.104813)scale(0.1 -0.1)">
      <defs>
       <path id="DejaVuSans-64" d="M 2906 2969 
L 2906 4863 
L 3481 4863 
L 3481 0 
L 2906 0 
L 2906 525 
Q 2725 213 2448 61 
Q 2172 -91 1784 -91 
Q 1150 -91 751 415 
Q 353 922 353 1747 
Q 353 2572 751 3078 
Q 1150 3584 1784 3584 
Q 2172 3584 2448 3432 
Q 2725 3281 2906 2969 
z
M 947 1747 
Q 947 1113 1208 752 
Q 1469 391 1925 391 
Q 2381 391 2643 752 
Q 2906 1113 2906 1747 
Q 2906 2381 2643 2742 
Q 2381 3103 1925 3103 
Q 1469 3103 1208 2742 
Q 947 2381 947 1747 
z
" transform="scale(0.015625)"/>
       <path id="DejaVuSans-6c" d="M 603 4863 
L 1178 4863 
L 1178 0 
L 603 0 
L 603 4863 
z
" transform="scale(0.015625)"/>
       <path id="DejaVuSans-72" d="M 2631 2963 
Q 2534 3019 2420 3045 
Q 2306 3072 2169 3072 
Q 1681 3072 1420 2755 
Q 1159 2438 1159 1844 
L 1159 0 
L 581 0 
L 581 3500 
L 1159 3500 
L 1159 2956 
Q 1341 3275 1631 3429 
Q 1922 3584 2338 3584 
Q 2397 3584 2469 3576 
Q 2541 3569 2628 3553 
L 2631 2963 
z
" transform="scale(0.015625)"/>
      </defs>
      <use xlink:href="#DejaVuSans-64"/>
      <use xlink:href="#DejaVuSans-6f" x="63.476562"/>
      <use xlink:href="#DejaVuSans-6c" x="124.658203"/>
      <use xlink:href="#DejaVuSans-6c" x="152.441406"/>
      <use xlink:href="#DejaVuSans-61" x="180.224609"/>
      <use xlink:href="#DejaVuSans-72" x="241.503906"/>
     </g>
    </g>
   </g>
  </g>
  <g id="text_18">
   <!-- Person data, automatically plotted -->
   <g transform="translate(126.842813 16.030125)scale(0.12 -0.12)">
    <defs>
     <path id="DejaVuSans-50" d="M 1259 4147 
L 1259 2394 
L 2053 2394 
Q 2494 2394 2734 2622 
Q 2975 2850 2975 3272 
Q 2975 3691 2734 3919 
Q 2494 4147 2053 4147 
L 1259 4147 
z
M 628 4666 
L 2053 4666 
Q 2838 4666 3239 4311 
Q 3641 3956 3641 3272 
Q 3641 2581 3239 2228 
Q 2838 1875 2053 1875 
L 1259 1875 
L 1259 0 
L 628 0 
L 628 4666 
z
" transform="scale(0.015625)"/>
     <path id="DejaVuSans-2c" d="M 750 794 
L 1409 794 
L 1409 256 
L 897 -744 
L 494 -744 
L 750 256 
L 750 794 
z
" transform="scale(0.015625)"/>
     <path id="DejaVuSans-75" d="M 544 1381 
L 544 3500 
L 1119 3500 
L 1119 1403 
Q 1119 906 1312 657 
Q 1506 409 1894 409 
Q 2359 409 2629 706 
Q 2900 1003 2900 1516 
L 2900 3500 
L 3475 3500 
L 3475 0 
L 2900 0 
L 2900 538 
Q 2691 219 2414 64 
Q 2138 -91 1772 -91 
Q 1169 -91 856 284 
Q 544 659 544 1381 
z
M 1991 3584 
L 1991 3584 
z
" transform="scale(0.015625)"/>
     <path id="DejaVuSans-6d" d="M 3328 2828 
Q 3544 3216 3844 3400 
Q 4144 3584 4550 3584 
Q 5097 3584 5394 3201 
Q 5691 2819 5691 2113 
L 5691 0 
L 5113 0 
L 5113 2094 
Q 5113 2597 4934 2840 
Q 4756 3084 4391 3084 
Q 3944 3084 3684 2787 
Q 3425 2491 3425 1978 
L 3425 0 
L 2847 0 
L 2847 2094 
Q 2847 2600 2669 2842 
Q 2491 3084 2119 3084 
Q 1678 3084 1418 2786 
Q 1159 2488 1159 1978 
L 1159 0 
L 581 0 
L 581 3500 
L 1159 3500 
L 1159 2956 
Q 1356 3278 1631 3431 
Q 1906 3584 2284 3584 
Q 2666 3584 2933 3390 
Q 3200 3197 3328 2828 
z
" transform="scale(0.015625)"/>
     <path id="DejaVuSans-63" d="M 3122 3366 
L 3122 2828 
Q 2878 2963 2633 3030 
Q 2388 3097 2138 3097 
Q 1578 3097 1268 2742 
Q 959 2388 959 1747 
Q 959 1106 1268 751 
Q 1578 397 2138 397 
Q 2388 397 2633 464 
Q 2878 531 3122 666 
L 3122 134 
Q 2881 22 2623 -34 
Q 2366 -91 2075 -91 
Q 1284 -91 818 406 
Q 353 903 353 1747 
Q 353 2603 823 3093 
Q 1294 3584 2113 3584 
Q 2378 3584 2631 3529 
Q 2884 3475 3122 3366 
z
" transform="scale(0.015625)"/>
     <path id="DejaVuSans-79" d="M 2059 -325 
Q 1816 -950 1584 -1140 
Q 1353 -1331 966 -1331 
L 506 -1331 
L 506 -850 
L 844 -850 
Q 1081 -850 1212 -737 
Q 1344 -625 1503 -206 
L 1606 56 
L 191 3500 
L 800 3500 
L 1894 763 
L 2988 3500 
L 3597 3500 
L 2059 -325 
z
" transform="scale(0.015625)"/>
    </defs>
    <use xlink:href="#DejaVuSans-50"/>
    <use xlink:href="#DejaVuSans-65" x="56.677734"/>
    <use xlink:href="#DejaVuSans-72" x="118.201172"/>
    <use xlink:href="#DejaVuSans-73" x="159.314453"/>
    <use xlink:href="#DejaVuSans-6f" x="211.414062"/>
    <use xlink:href="#DejaVuSans-6e" x="272.595703"/>
    <use xlink:href="#DejaVuSans-20" x="335.974609"/>
    <use xlink:href="#DejaVuSans-64" x="367.761719"/>
    <use xlink:href="#DejaVuSans-61" x="431.238281"/>
    <use xlink:href="#DejaVuSans-74" x="492.517578"/>
    <use xlink:href="#DejaVuSans-61" x="531.726562"/>
    <use xlink:href="#DejaVuSans-2c" x="593.005859"/>
    <use xlink:href="#DejaVuSans-20" x="624.792969"/>
    <use xlink:href="#DejaVuSans-61" x="656.580078"/>
    <use xlink:href="#DejaVuSans-75" x="717.859375"/>
    <use xlink:href="#DejaVuSans-74" x="781.238281"/>
    <use xlink:href="#DejaVuSans-6f" x="820.447266"/>
    <use xlink:href="#DejaVuSans-6d" x="881.628906"/>
    <use xlink:href="#DejaVuSans-61" x="979.041016"/>
    <use xlink:href="#DejaVuSans-74" x="1040.320312"/>
    <use xlink:href="#DejaVuSans-69" x="1079.529297"/>
    <use xlink:href="#DejaVuSans-63" x="1107.3125"/>
    <use xlink:href="#DejaVuSans-61" x="1162.292969"/>
    <use xlink:href="#DejaVuSans-6c" x="1223.572266"/>
    <use xlink:href="#DejaVuSans-6c" x="1251.355469"/>
    <use xlink:href="#DejaVuSans-79" x="1279.138672"/>
    <use xlink:href="#DejaVuSans-20" x="1338.318359"/>
    <use xlink:href="#DejaVuSans-70" x="1370.105469"/>
    <use xlink:href="#DejaVuSans-6c" x="1433.582031"/>
    <use xlink:href="#DejaVuSans-6f" x="1461.365234"/>
    <use xlink:href="#DejaVuSans-74" x="1522.546875"/>
    <use xlink:href="#DejaVuSans-74" x="1561.755859"/>
    <use xlink:href="#DejaVuSans-65" x="1600.964844"/>
    <use xlink:href="#DejaVuSans-64" x="1662.488281"/>
   </g>
  </g>
 </g>
 <defs>
  <clipPath id="pbb48314d3f">
   <rect x="57.6" y="41.472" width="357.12" height="266.112"/>
  </clipPath>
 </defs>
</svg>
